# xmcd
#
# Track frame offsets: 
#        150
#        25047
#        47010
#        73457
#        91024
#        123148
#        142036
#        176560
#        196677
#        221194
#        237356
#
# Disc length: 3494 seconds
#
# Revision: 0
# Processed by: cddbd v1.5.2PL0 Copyright (c) Steve Scherf et al.
# Submitted via: ExactAudioCopy v0.99pb4
#
DISCID=9a0da40b
DTITLE=Larry Garner - Blues For Sale
DYEAR=2012
DGENRE=Blues
TTITLE0=A Whole Lotta Nothing
TTITLE1=Talking Naughty
TTITLE2=Broken Soldier
TTITLE3=Miss Boss
TTITLE4=It's Killing Me
TTITLE5=Alone And Happy
TTITLE6=Last Request (When I Die)
TTITLE7=If You Come To Louisiana
TTITLE8=Rebound
TTITLE9=I Know You Don't Love Me
TTITLE10=Car Seat Baby
EXTD=
EXTT0=
EXTT1=
EXTT2=
EXTT3=
EXTT4=
EXTT5=
EXTT6=
EXTT7=
EXTT8=
EXTT9=
EXTT10=
PLAYORDER=
